<mxfile host="Electron" agent="Mozilla/5.0 (Macintosh; Intel Mac OS X 10_15_7) AppleWebKit/537.36 (KHTML, like Gecko) draw.io/24.7.17 Chrome/128.0.6613.36 Electron/32.0.1 Safari/537.36" version="24.7.17">
  <diagram name="Page-1" id="MA6Je9MCGcTiZfPJL6Uw">
    <mxGraphModel dx="1247" dy="743" grid="1" gridSize="10" guides="1" tooltips="1" connect="1" arrows="1" fold="1" page="1" pageScale="1" pageWidth="1920" pageHeight="1200" math="0" shadow="0">
      <root>
        <mxCell id="0" />
        <mxCell id="1" parent="0" />
        <mxCell id="h-1JBtAizCxKz9Kvr1ZG-22" style="edgeStyle=orthogonalEdgeStyle;rounded=0;orthogonalLoop=1;jettySize=auto;html=1;exitX=0.5;exitY=1;exitDx=0;exitDy=0;entryX=0.5;entryY=0;entryDx=0;entryDy=0;" edge="1" parent="1" source="h-1JBtAizCxKz9Kvr1ZG-3" target="h-1JBtAizCxKz9Kvr1ZG-7">
          <mxGeometry relative="1" as="geometry" />
        </mxCell>
        <mxCell id="h-1JBtAizCxKz9Kvr1ZG-3" value="&lt;font color=&quot;#cc0066&quot;&gt;state_wait_rqst&lt;/font&gt;" style="ellipse;whiteSpace=wrap;html=1;" vertex="1" parent="1">
          <mxGeometry x="360" y="80" width="150" height="80" as="geometry" />
        </mxCell>
        <mxCell id="h-1JBtAizCxKz9Kvr1ZG-23" style="edgeStyle=orthogonalEdgeStyle;rounded=0;orthogonalLoop=1;jettySize=auto;html=1;exitX=0.5;exitY=0;exitDx=0;exitDy=0;entryX=0.5;entryY=1;entryDx=0;entryDy=0;" edge="1" parent="1" source="h-1JBtAizCxKz9Kvr1ZG-5" target="h-1JBtAizCxKz9Kvr1ZG-18">
          <mxGeometry relative="1" as="geometry" />
        </mxCell>
        <mxCell id="h-1JBtAizCxKz9Kvr1ZG-5" value="&lt;font color=&quot;#007fff&quot;&gt;state_wait_to_send_data&lt;/font&gt;" style="ellipse;whiteSpace=wrap;html=1;" vertex="1" parent="1">
          <mxGeometry x="120" y="230" width="150" height="80" as="geometry" />
        </mxCell>
        <mxCell id="h-1JBtAizCxKz9Kvr1ZG-7" value="&lt;font color=&quot;#6600cc&quot;&gt;state_wait_ack&lt;/font&gt;" style="ellipse;whiteSpace=wrap;html=1;" vertex="1" parent="1">
          <mxGeometry x="360" y="230" width="150" height="80" as="geometry" />
        </mxCell>
        <mxCell id="h-1JBtAizCxKz9Kvr1ZG-8" value="done == 1" style="text;html=1;align=center;verticalAlign=middle;resizable=0;points=[];autosize=1;strokeColor=none;fillColor=none;" vertex="1" parent="1">
          <mxGeometry x="123" y="184" width="80" height="30" as="geometry" />
        </mxCell>
        <mxCell id="h-1JBtAizCxKz9Kvr1ZG-9" value="request == 1" style="text;html=1;align=center;verticalAlign=middle;resizable=0;points=[];autosize=1;strokeColor=none;fillColor=none;" vertex="1" parent="1">
          <mxGeometry x="430" y="178" width="90" height="30" as="geometry" />
        </mxCell>
        <mxCell id="h-1JBtAizCxKz9Kvr1ZG-11" style="edgeStyle=orthogonalEdgeStyle;rounded=0;orthogonalLoop=1;jettySize=auto;html=1;exitX=0;exitY=0;exitDx=0;exitDy=0;entryX=1;entryY=0;entryDx=0;entryDy=0;curved=1;" edge="1" parent="1" source="h-1JBtAizCxKz9Kvr1ZG-3" target="h-1JBtAizCxKz9Kvr1ZG-3">
          <mxGeometry relative="1" as="geometry">
            <Array as="points">
              <mxPoint x="382" y="60" />
              <mxPoint x="488" y="60" />
            </Array>
          </mxGeometry>
        </mxCell>
        <mxCell id="h-1JBtAizCxKz9Kvr1ZG-12" style="edgeStyle=orthogonalEdgeStyle;rounded=0;orthogonalLoop=1;jettySize=auto;html=1;exitX=1;exitY=1;exitDx=0;exitDy=0;entryX=0.2;entryY=0.888;entryDx=0;entryDy=0;entryPerimeter=0;curved=1;" edge="1" parent="1" source="h-1JBtAizCxKz9Kvr1ZG-5" target="h-1JBtAizCxKz9Kvr1ZG-5">
          <mxGeometry relative="1" as="geometry">
            <Array as="points">
              <mxPoint x="248" y="330" />
              <mxPoint x="150" y="330" />
            </Array>
          </mxGeometry>
        </mxCell>
        <mxCell id="h-1JBtAizCxKz9Kvr1ZG-13" style="edgeStyle=orthogonalEdgeStyle;rounded=0;orthogonalLoop=1;jettySize=auto;html=1;exitX=1;exitY=1;exitDx=0;exitDy=0;entryX=0;entryY=1;entryDx=0;entryDy=0;curved=1;" edge="1" parent="1" source="h-1JBtAizCxKz9Kvr1ZG-7" target="h-1JBtAizCxKz9Kvr1ZG-7">
          <mxGeometry relative="1" as="geometry">
            <Array as="points">
              <mxPoint x="488" y="330" />
              <mxPoint x="382" y="330" />
            </Array>
          </mxGeometry>
        </mxCell>
        <mxCell id="h-1JBtAizCxKz9Kvr1ZG-14" value="request == 0" style="text;html=1;align=center;verticalAlign=middle;resizable=0;points=[];autosize=1;strokeColor=none;fillColor=none;" vertex="1" parent="1">
          <mxGeometry x="390" y="30" width="90" height="30" as="geometry" />
        </mxCell>
        <mxCell id="h-1JBtAizCxKz9Kvr1ZG-15" value="done == 0" style="text;html=1;align=center;verticalAlign=middle;resizable=0;points=[];autosize=1;strokeColor=none;fillColor=none;" vertex="1" parent="1">
          <mxGeometry x="155" y="325" width="80" height="30" as="geometry" />
        </mxCell>
        <mxCell id="h-1JBtAizCxKz9Kvr1ZG-16" value="ack == 0" style="text;html=1;align=center;verticalAlign=middle;resizable=0;points=[];autosize=1;strokeColor=none;fillColor=none;" vertex="1" parent="1">
          <mxGeometry x="400" y="325" width="70" height="30" as="geometry" />
        </mxCell>
        <mxCell id="h-1JBtAizCxKz9Kvr1ZG-17" value="rst_n == 0" style="text;html=1;align=center;verticalAlign=middle;resizable=0;points=[];autosize=1;strokeColor=none;fillColor=none;" vertex="1" parent="1">
          <mxGeometry x="494" y="44" width="80" height="30" as="geometry" />
        </mxCell>
        <mxCell id="h-1JBtAizCxKz9Kvr1ZG-24" style="edgeStyle=orthogonalEdgeStyle;rounded=0;orthogonalLoop=1;jettySize=auto;html=1;exitX=1;exitY=0.5;exitDx=0;exitDy=0;entryX=0;entryY=0.5;entryDx=0;entryDy=0;" edge="1" parent="1" source="h-1JBtAizCxKz9Kvr1ZG-18" target="h-1JBtAizCxKz9Kvr1ZG-3">
          <mxGeometry relative="1" as="geometry" />
        </mxCell>
        <mxCell id="h-1JBtAizCxKz9Kvr1ZG-18" value="&lt;font color=&quot;#009900&quot;&gt;state_send_data&lt;/font&gt;" style="ellipse;whiteSpace=wrap;html=1;" vertex="1" parent="1">
          <mxGeometry x="120" y="80" width="150" height="80" as="geometry" />
        </mxCell>
        <mxCell id="h-1JBtAizCxKz9Kvr1ZG-19" style="edgeStyle=orthogonalEdgeStyle;rounded=0;orthogonalLoop=1;jettySize=auto;html=1;exitX=0;exitY=0;exitDx=0;exitDy=0;entryX=1;entryY=0;entryDx=0;entryDy=0;curved=1;" edge="1" parent="1" source="h-1JBtAizCxKz9Kvr1ZG-18" target="h-1JBtAizCxKz9Kvr1ZG-18">
          <mxGeometry relative="1" as="geometry">
            <Array as="points">
              <mxPoint x="142" y="60" />
              <mxPoint x="248" y="60" />
            </Array>
          </mxGeometry>
        </mxCell>
        <mxCell id="h-1JBtAizCxKz9Kvr1ZG-20" value="ack == 1" style="text;html=1;align=center;verticalAlign=middle;resizable=0;points=[];autosize=1;strokeColor=none;fillColor=none;" vertex="1" parent="1">
          <mxGeometry x="160" y="33" width="70" height="30" as="geometry" />
        </mxCell>
        <mxCell id="h-1JBtAizCxKz9Kvr1ZG-21" style="edgeStyle=orthogonalEdgeStyle;rounded=0;orthogonalLoop=1;jettySize=auto;html=1;exitX=0;exitY=0.5;exitDx=0;exitDy=0;entryX=1;entryY=0.5;entryDx=0;entryDy=0;" edge="1" parent="1" source="h-1JBtAizCxKz9Kvr1ZG-7" target="h-1JBtAizCxKz9Kvr1ZG-5">
          <mxGeometry relative="1" as="geometry" />
        </mxCell>
        <mxCell id="h-1JBtAizCxKz9Kvr1ZG-25" value="ack == 0" style="text;html=1;align=center;verticalAlign=middle;resizable=0;points=[];autosize=1;strokeColor=none;fillColor=none;" vertex="1" parent="1">
          <mxGeometry x="278" y="94" width="70" height="30" as="geometry" />
        </mxCell>
        <mxCell id="h-1JBtAizCxKz9Kvr1ZG-26" value="ack == 1" style="text;html=1;align=center;verticalAlign=middle;resizable=0;points=[];autosize=1;strokeColor=none;fillColor=none;" vertex="1" parent="1">
          <mxGeometry x="282" y="245" width="70" height="30" as="geometry" />
        </mxCell>
        <mxCell id="h-1JBtAizCxKz9Kvr1ZG-27" value="" style="endArrow=classic;html=1;rounded=0;entryX=0.959;entryY=0.299;entryDx=0;entryDy=0;entryPerimeter=0;" edge="1" parent="1" target="h-1JBtAizCxKz9Kvr1ZG-3">
          <mxGeometry width="50" height="50" relative="1" as="geometry">
            <mxPoint x="530" y="70" as="sourcePoint" />
            <mxPoint x="590" y="30" as="targetPoint" />
          </mxGeometry>
        </mxCell>
        <mxCell id="h-1JBtAizCxKz9Kvr1ZG-28" style="rounded=0;orthogonalLoop=1;jettySize=auto;html=1;exitX=0;exitY=1;exitDx=0;exitDy=0;entryX=0.5;entryY=0;entryDx=0;entryDy=0;endArrow=none;endFill=0;startArrow=classic;startFill=1;" edge="1" parent="1" source="h-1JBtAizCxKz9Kvr1ZG-30" target="h-1JBtAizCxKz9Kvr1ZG-32">
          <mxGeometry relative="1" as="geometry" />
        </mxCell>
        <mxCell id="h-1JBtAizCxKz9Kvr1ZG-30" value="&lt;font color=&quot;#cc0066&quot;&gt;state_wait_rqst&lt;/font&gt;" style="ellipse;whiteSpace=wrap;html=1;" vertex="1" parent="1">
          <mxGeometry x="720" y="90" width="150" height="80" as="geometry" />
        </mxCell>
        <mxCell id="h-1JBtAizCxKz9Kvr1ZG-31" style="edgeStyle=orthogonalEdgeStyle;rounded=0;orthogonalLoop=1;jettySize=auto;html=1;exitX=1;exitY=0.5;exitDx=0;exitDy=0;entryX=0;entryY=0.5;entryDx=0;entryDy=0;endArrow=none;endFill=0;startArrow=classic;startFill=1;" edge="1" parent="1" source="h-1JBtAizCxKz9Kvr1ZG-32" target="h-1JBtAizCxKz9Kvr1ZG-34">
          <mxGeometry relative="1" as="geometry" />
        </mxCell>
        <mxCell id="h-1JBtAizCxKz9Kvr1ZG-32" value="&lt;font color=&quot;#009900&quot;&gt;state_send_ack&lt;/font&gt;" style="ellipse;whiteSpace=wrap;html=1;" vertex="1" parent="1">
          <mxGeometry x="600" y="230" width="150" height="80" as="geometry" />
        </mxCell>
        <mxCell id="h-1JBtAizCxKz9Kvr1ZG-33" style="rounded=0;orthogonalLoop=1;jettySize=auto;html=1;exitX=0.5;exitY=0;exitDx=0;exitDy=0;entryX=1;entryY=1;entryDx=0;entryDy=0;endArrow=none;endFill=0;startArrow=classic;startFill=1;" edge="1" parent="1" source="h-1JBtAizCxKz9Kvr1ZG-34" target="h-1JBtAizCxKz9Kvr1ZG-30">
          <mxGeometry relative="1" as="geometry" />
        </mxCell>
        <mxCell id="h-1JBtAizCxKz9Kvr1ZG-34" value="&lt;font color=&quot;#007fff&quot;&gt;state_wait_to_send_ack&lt;/font&gt;" style="ellipse;whiteSpace=wrap;html=1;" vertex="1" parent="1">
          <mxGeometry x="840" y="230" width="150" height="80" as="geometry" />
        </mxCell>
        <mxCell id="h-1JBtAizCxKz9Kvr1ZG-35" value="valid == 1" style="text;html=1;align=center;verticalAlign=middle;resizable=0;points=[];autosize=1;strokeColor=none;fillColor=none;" vertex="1" parent="1">
          <mxGeometry x="635" y="170" width="80" height="30" as="geometry" />
        </mxCell>
        <mxCell id="h-1JBtAizCxKz9Kvr1ZG-36" value="request == 1" style="text;html=1;align=center;verticalAlign=middle;resizable=0;points=[];autosize=1;strokeColor=none;fillColor=none;" vertex="1" parent="1">
          <mxGeometry x="870" y="170" width="90" height="30" as="geometry" />
        </mxCell>
        <mxCell id="h-1JBtAizCxKz9Kvr1ZG-37" value="done == 1" style="text;html=1;align=center;verticalAlign=middle;resizable=0;points=[];autosize=1;strokeColor=none;fillColor=none;" vertex="1" parent="1">
          <mxGeometry x="755" y="270" width="80" height="30" as="geometry" />
        </mxCell>
        <mxCell id="h-1JBtAizCxKz9Kvr1ZG-38" style="edgeStyle=orthogonalEdgeStyle;rounded=0;orthogonalLoop=1;jettySize=auto;html=1;exitX=0;exitY=0;exitDx=0;exitDy=0;entryX=1;entryY=0;entryDx=0;entryDy=0;curved=1;" edge="1" parent="1" source="h-1JBtAizCxKz9Kvr1ZG-30" target="h-1JBtAizCxKz9Kvr1ZG-30">
          <mxGeometry relative="1" as="geometry">
            <Array as="points">
              <mxPoint x="742" y="70" />
              <mxPoint x="848" y="70" />
            </Array>
          </mxGeometry>
        </mxCell>
        <mxCell id="h-1JBtAizCxKz9Kvr1ZG-39" style="edgeStyle=orthogonalEdgeStyle;rounded=0;orthogonalLoop=1;jettySize=auto;html=1;exitX=1;exitY=1;exitDx=0;exitDy=0;entryX=0.2;entryY=0.888;entryDx=0;entryDy=0;entryPerimeter=0;curved=1;" edge="1" parent="1" source="h-1JBtAizCxKz9Kvr1ZG-32" target="h-1JBtAizCxKz9Kvr1ZG-32">
          <mxGeometry relative="1" as="geometry">
            <Array as="points">
              <mxPoint x="728" y="330" />
              <mxPoint x="630" y="330" />
            </Array>
          </mxGeometry>
        </mxCell>
        <mxCell id="h-1JBtAizCxKz9Kvr1ZG-40" style="edgeStyle=orthogonalEdgeStyle;rounded=0;orthogonalLoop=1;jettySize=auto;html=1;exitX=1;exitY=1;exitDx=0;exitDy=0;entryX=0;entryY=1;entryDx=0;entryDy=0;curved=1;" edge="1" parent="1" source="h-1JBtAizCxKz9Kvr1ZG-34" target="h-1JBtAizCxKz9Kvr1ZG-34">
          <mxGeometry relative="1" as="geometry">
            <Array as="points">
              <mxPoint x="968" y="330" />
              <mxPoint x="862" y="330" />
            </Array>
          </mxGeometry>
        </mxCell>
        <mxCell id="h-1JBtAizCxKz9Kvr1ZG-41" value="request == 0" style="text;html=1;align=center;verticalAlign=middle;resizable=0;points=[];autosize=1;strokeColor=none;fillColor=none;" vertex="1" parent="1">
          <mxGeometry x="750" y="40" width="90" height="30" as="geometry" />
        </mxCell>
        <mxCell id="h-1JBtAizCxKz9Kvr1ZG-42" value="valid == 0" style="text;html=1;align=center;verticalAlign=middle;resizable=0;points=[];autosize=1;strokeColor=none;fillColor=none;" vertex="1" parent="1">
          <mxGeometry x="640" y="330" width="80" height="30" as="geometry" />
        </mxCell>
        <mxCell id="h-1JBtAizCxKz9Kvr1ZG-43" value="done == 0" style="text;html=1;align=center;verticalAlign=middle;resizable=0;points=[];autosize=1;strokeColor=none;fillColor=none;" vertex="1" parent="1">
          <mxGeometry x="875" y="330" width="80" height="30" as="geometry" />
        </mxCell>
        <mxCell id="h-1JBtAizCxKz9Kvr1ZG-45" value="rst_n == 0" style="text;html=1;align=center;verticalAlign=middle;resizable=0;points=[];autosize=1;strokeColor=none;fillColor=none;" vertex="1" parent="1">
          <mxGeometry x="857" y="58" width="80" height="30" as="geometry" />
        </mxCell>
        <mxCell id="h-1JBtAizCxKz9Kvr1ZG-46" value="" style="endArrow=classic;html=1;rounded=0;entryX=0.959;entryY=0.299;entryDx=0;entryDy=0;entryPerimeter=0;" edge="1" parent="1">
          <mxGeometry width="50" height="50" relative="1" as="geometry">
            <mxPoint x="893" y="84" as="sourcePoint" />
            <mxPoint x="867" y="118" as="targetPoint" />
          </mxGeometry>
        </mxCell>
      </root>
    </mxGraphModel>
  </diagram>
</mxfile>
